<svg width="43" height="46" viewBox="0 0 43 46" fill="none" xmlns="http://www.w3.org/2000/svg">
<path d="M12.5697 31.578H28.9995M12.5697 31.578C12.5697 28.6478 12.5697 14.4771 12.5697 14.4771M12.5697 31.578C12.5697 31.578 13.9937 35.5806 12.5697 37.4385C11.5607 38.755 10.4537 39.6309 8.73101 39.504C7.21106 39.3921 6.25675 38.6841 5.50647 37.4385C4.67038 36.0504 4.63855 34.7262 5.50647 33.3554C6.11725 32.3907 6.81316 32.0201 7.91208 31.578C9.5839 30.9055 12.5697 31.578 12.5697 31.578ZM28.9995 31.578V14.4771M28.9995 31.578C28.9995 31.578 32.3989 31.5486 34.3226 32.3466C36.2212 33.1343 37.2759 33.8743 38.4684 35.469C39.2857 36.5619 39.8288 37.2612 39.9527 38.5913C40.1075 40.2521 39.9481 41.7042 38.4684 42.6264C37.1197 43.467 34.3226 42.6264 34.3226 42.6264C34.3226 42.6264 31.413 41.7256 30.2791 40.3687C28.9836 38.8185 28.9995 35.469 28.9995 35.469V31.578ZM28.9995 14.4771H12.5697M28.9995 14.4771C28.9995 14.4771 27.7898 9.8463 28.9995 7.27159C29.8576 5.44518 30.5353 4.07041 32.5312 3.38064C33.9379 2.89444 34.9368 2.85224 36.3699 3.38064C37.9851 3.97618 38.693 5.26042 38.7755 6.8873C38.8779 8.90482 37.0865 10.5381 36.0628 11.4507C35.0391 12.3634 32.5312 13.4202 32.5312 13.4202L28.9995 14.4771ZM12.5697 14.4771C12.5697 14.4771 9.66412 13.8294 7.91208 13.132C6.19085 12.4469 4.65922 12.4849 3.71506 10.9704C3.03127 9.87354 2.78929 8.96191 3.20323 7.75195C3.73489 6.19792 5.02275 5.49238 6.73487 5.20602C8.37289 4.93205 9.57273 5.28755 10.8295 6.31086C12.0181 7.27861 12.1817 8.29031 12.5697 9.72145C13.0578 11.5213 12.5697 14.4771 12.5697 14.4771Z" stroke="#82809B" stroke-width="5"/>
</svg>
